<?xml version="1.0" encoding="utf-8"?>
<!-- Generator: Adobe Illustrator 27.8.0, SVG Export Plug-In . SVG Version: 6.00 Build 0)  -->
<svg version="1.1" xmlns="http://www.w3.org/2000/svg" xmlns:xlink="http://www.w3.org/1999/xlink" x="0px" y="0px"
	 viewBox="0 0 45.4 53.4" style="enable-background:new 0 0 45.4 53.4;" xml:space="preserve">
<style type="text/css">
	.st0{fill:none;stroke:#63B1BB;stroke-width:2;stroke-linecap:round;stroke-miterlimit:10;stroke-dasharray:1,7;}
	.st1{fill:#1B1E39;}
	.st2{fill:#1F2A44;}
	.st3{fill:#63B1BB;}
	.st4{fill:#FFFFFF;}
	.st5{fill:#1F2A44;stroke:#63B1BB;stroke-miterlimit:10;}
	.st6{fill:#63B1BB;stroke:#63B1BB;stroke-miterlimit:10;}
	.st7{fill:#FFFFFF;stroke:#63B1BB;stroke-miterlimit:10;}
</style>
<g id="Laag_1">
</g>
<g id="Laag_2">
	<g>
		<g>
			<g>
				<g>
					<g>
						<g>
							<path class="st4" d="M35.2,0h10.1v34.4c0,3.8-0.9,7.1-2.8,9.9c-1.9,2.9-4.5,5.1-7.9,6.7c-3.4,1.6-7.4,2.4-11.9,2.4
								c-4.6,0-8.6-0.8-12-2.4c-3.4-1.6-6-3.8-7.9-6.7C0.9,41.5,0,38.1,0,34.4V0h10.1v33.6c0,2.2,0.5,4.1,1.5,5.9s2.5,3.1,4.4,4
								c1.9,1,4.1,1.5,6.7,1.5c2.6,0,4.8-0.5,6.7-1.5c1.9-1,3.3-2.3,4.4-4c1-1.7,1.5-3.7,1.5-5.9V0z"/>
						</g>
					</g>
				</g>
			</g>
			<g>
				<path class="st4" d="M22.7,0.2L22.7,0.2c2,0,3.6,1.6,3.6,3.6v17.6c0,2-1.6,3.6-3.6,3.6h0c-2,0-3.6-1.6-3.6-3.6V3.8
					C19.1,1.8,20.7,0.2,22.7,0.2z"/>
			</g>
		</g>
	</g>
</g>
</svg>
